<?xml version="1.0" encoding="UTF-8" standalone="no"?>
<svg
   xmlns:dc="http://purl.org/dc/elements/1.1/"
   xmlns:cc="http://creativecommons.org/ns#"
   xmlns:rdf="http://www.w3.org/1999/02/22-rdf-syntax-ns#"
   xmlns:svg="http://www.w3.org/2000/svg"
   xmlns="http://www.w3.org/2000/svg"
   xmlns:sodipodi="http://sodipodi.sourceforge.net/DTD/sodipodi-0.dtd"
   xmlns:inkscape="http://www.inkscape.org/namespaces/inkscape"
   width="210mm"
   height="297mm"
   viewBox="0 0 210 297"
   version="1.1"
   id="svg8"
   inkscape:version="1.0.2-2 (e86c870879, 2021-01-15)"
   sodipodi:docname="привет.svg">
  <defs
     id="defs2" />
  <sodipodi:namedview
     id="base"
     pagecolor="#ffffff"
     bordercolor="#666666"
     borderopacity="1.0"
     inkscape:pageopacity="0.0"
     inkscape:pageshadow="2"
     inkscape:zoom="0.175"
     inkscape:cx="247.65482"
     inkscape:cy="145.52554"
     inkscape:document-units="mm"
     inkscape:current-layer="layer1"
     inkscape:document-rotation="0"
     showgrid="false"
     inkscape:window-width="1155"
     inkscape:window-height="1041"
     inkscape:window-x="26"
     inkscape:window-y="0"
     inkscape:window-maximized="0" />
  <metadata
     id="metadata5">
    <rdf:RDF>
      <cc:Work
         rdf:about="">
        <dc:format>image/svg+xml</dc:format>
        <dc:type
           rdf:resource="http://purl.org/dc/dcmitype/StillImage" />
        <dc:title></dc:title>
      </cc:Work>
    </rdf:RDF>
  </metadata>
  <g
     inkscape:label="Слой 1"
     inkscape:groupmode="layer"
     id="layer1">
    <g
       id="g878"
       transform="translate(-9.827381,-14.363095)">
      <path
         style="fill:#007de7;fill-opacity:1;stroke:none;stroke-width:0.267169px;stroke-linecap:butt;stroke-linejoin:miter;stroke-opacity:1"
         d="m 24.033001,89.560572 c 16.79978,-3.42138 81.915309,-4.29168 81.915309,-4.29168 l -1.43512,7.49437 c 0,0 -106.7881089,2.1551 -80.480189,-3.20269 z"
         id="path865"
         sodipodi:nodetypes="sccs" />
      <path
         style="fill:#007de7;fill-opacity:1;stroke:none;stroke-width:0.267169px;stroke-linecap:butt;stroke-linejoin:miter;stroke-opacity:1"
         d="m 212.50893,87.430618 c -16.79978,3.42138 -81.91531,4.29168 -81.91531,4.29168 l 1.43512,-7.49437 c 0,0 106.78811,-2.1551 80.48019,3.20269 z"
         id="path863"
         sodipodi:nodetypes="sccs" />
      <path
         style="fill:#007de7;fill-opacity:1;stroke:none;stroke-width:0.246544px;stroke-linecap:butt;stroke-linejoin:miter;stroke-opacity:1"
         d="m 116.23615,18.818878 c -3.42138,14.306032 -4.29168,69.755902 -4.29168,69.755902 l 7.49437,-1.222093 c 0,0 2.1551,-90.9366246 -3.20269,-68.533809 z"
         id="path861"
         sodipodi:nodetypes="sccs" />
      <path
         style="fill:#007de7;fill-opacity:1;stroke:none;stroke-width:0.264583px;stroke-linecap:butt;stroke-linejoin:miter;stroke-opacity:1"
         d="M 87.848256,130.28339 C -18.398009,120.26376 -74.112469,105.72567 -125.99626,97.539765 c -2.4722,-0.390049 2.96117,8.404385 6.66341,9.203905 74.184771,16.02041 132.768859,31.21311 205.418762,35.14218 3.906139,0.21125 5.65691,-11.23518 1.762344,-11.60246 z"
         id="path838"
         sodipodi:nodetypes="sssss" />
      <path
         style="fill:#007de7;fill-opacity:1;stroke:none;stroke-width:0.264583px;stroke-linecap:butt;stroke-linejoin:miter;stroke-opacity:1"
         d="m 123.0746,128.63987 c 106.24627,-10.01963 161.96073,-24.55771 213.84451,-32.74362 2.4722,-0.390049 -2.96117,8.40439 -6.66341,9.2039 -74.18476,16.02041 -132.76885,31.21311 -205.41875,35.14218 -3.90614,0.21125 -5.65691,-11.23518 -1.76235,-11.60246 z"
         id="path840"
         sodipodi:nodetypes="sssss" />
      <ellipse
         style="fill:#007de7;fill-opacity:1;fill-rule:evenodd;stroke-width:0.192742"
         id="path10"
         cx="116.37868"
         cy="115.84969"
         rx="52.576679"
         ry="41.010414" />
      <path
         id="path835"
         style="fill:#ffffff;fill-opacity:1;stroke-width:0.296242"
         d="m 141.84474,107.45886 c 0,4.3562 -34.8039,5.47164 -57.759097,5.25264 -22.851732,-0.218 -29.619076,-0.89644 -29.61908,-5.25264 4e-6,-4.3562 19.560277,-7.887597 43.68909,-7.887597 24.128817,0 43.689087,3.531397 43.689087,7.887597 z"
         sodipodi:nodetypes="sssss" />
      <ellipse
         style="fill:none;fill-opacity:1;stroke:#007de7;stroke-width:5.465;stroke-miterlimit:4;stroke-dasharray:none;stroke-opacity:1"
         id="path853"
         cx="2.6805634"
         cy="148.39944"
         rx="21.916101"
         ry="21.381561" />
      <ellipse
         style="fill:#007de7;fill-opacity:1;stroke:none;stroke-width:7.40998;stroke-miterlimit:4;stroke-dasharray:none;stroke-opacity:1"
         id="path855"
         cx="3.2072349"
         cy="147.86685"
         rx="4.0272655"
         ry="3.4076865" />
      <ellipse
         style="fill:none;fill-opacity:1;stroke:#007de7;stroke-width:5.465;stroke-miterlimit:4;stroke-dasharray:none;stroke-opacity:1"
         id="ellipse857"
         cx="228.52332"
         cy="145.99402"
         rx="21.916101"
         ry="21.381561" />
      <ellipse
         style="fill:#007de7;fill-opacity:1;stroke:none;stroke-width:7.40998;stroke-miterlimit:4;stroke-dasharray:none;stroke-opacity:1"
         id="ellipse859"
         cx="229.04999"
         cy="145.46143"
         rx="4.0272655"
         ry="3.4076865" />
    </g>
  </g>
</svg>
